<svg width="32" height="33" viewBox="0 0 32 33" fill="none" xmlns="http://www.w3.org/2000/svg">
<path d="M27.4148 25.28L22.3378 20.203C23.3868 18.622 24.0008 16.729 24.0008 14.694C24.0008 9.17997 19.5148 4.69397 14.0008 4.69397C8.48682 4.69397 4.00082 9.17997 4.00082 14.694C4.00082 20.208 8.48682 24.694 14.0008 24.694C16.0358 24.694 17.9288 24.08 19.5098 23.031L24.5868 28.108C25.3668 28.889 26.6348 28.889 27.4148 28.108C28.1958 27.327 28.1958 26.061 27.4148 25.28ZM7.00082 14.694C7.00082 10.834 10.1408 7.69397 14.0008 7.69397C17.8608 7.69397 21.0008 10.834 21.0008 14.694C21.0008 18.554 17.8608 21.694 14.0008 21.694C10.1408 21.694 7.00082 18.554 7.00082 14.694Z" fill="#5D5FEF"/>
</svg>
